<?xml version="1.0" standalone="no"?>
<!DOCTYPE svg PUBLIC "-//W3C//DTD SVG 20010904//EN"
 "http://www.w3.org/TR/2001/REC-SVG-20010904/DTD/svg10.dtd">
<svg version="1.0" xmlns="http://www.w3.org/2000/svg"
 width="1413.000000pt" height="1413.000000pt" viewBox="0 0 1413.000000 1413.000000"
 preserveAspectRatio="xMidYMid meet">
<metadata>
Created by potrace 1.11, written by Peter Selinger 2001-2013
</metadata>
<g transform="translate(0.000000,1413.000000) scale(0.100000,-0.100000)"
fill="#000000" stroke="none">
<path d="M6803 12602 c-98 -1 -163 -6 -163 -12 0 -6 -18 -10 -40 -10 -22 0
-40 -4 -40 -10 0 -6 -33 -10 -80 -10 -54 0 -80 -4 -80 -12 0 -8 -32 -9 -120
-5 -103 6 -120 5 -120 -8 0 -12 -16 -15 -80 -15 -54 0 -80 -4 -80 -12 0 -14
233 -3 238 12 5 15 159 13 164 -2 3 -8 39 -12 118 -12 79 0 115 4 118 12 5 16
882 17 882 2 0 -6 47 -10 120 -10 73 0 120 4 120 10 0 6 33 10 80 10 44 0 80
-4 80 -9 0 -5 36 -12 80 -16 44 -4 80 -11 80 -16 0 -5 18 -9 40 -9 22 0 40 -4
40 -10 0 -5 -18 -10 -40 -10 -22 0 -40 4 -40 9 0 5 -36 12 -80 16 -44 4 -80
11 -80 16 0 5 -36 9 -80 9 -81 0 -111 -16 -42 -23 20 -2 -8 -1 -63 2 -55 3
-378 6 -718 6 -339 0 -617 3 -617 8 0 12 -158 8 -162 -4 -2 -7 -59 -13 -161
-17 -86 -2 -157 -8 -157 -12 0 -4 -54 -13 -120 -20 -66 -7 -120 -17 -120 -23
0 -12 154 1 158 14 5 12 82 11 82 -1 0 -5 18 -10 40 -10 22 0 40 5 40 10 0 6
47 10 120 10 66 0 120 -4 120 -9 0 -5 -36 -12 -80 -15 -44 -3 -116 -9 -160
-12 -55 -4 -80 -3 -80 5 0 14 -77 15 -82 1 -2 -6 -55 -13 -121 -17 -64 -3
-117 -9 -117 -13 0 -4 -54 -13 -120 -20 -66 -7 -120 -17 -120 -23 0 -12 154 1
158 14 5 12 82 11 82 -1 0 -5 18 -10 40 -10 22 0 40 5 40 10 0 6 33 10 80 10
44 0 80 -4 80 -8 0 -14 -233 -37 -238 -23 -4 13 -82 15 -82 2 0 -5 -36 -12
-80 -16 -44 -4 -80 -12 -80 -17 0 -7 -29 -8 -80 -3 -70 6 -80 5 -80 -9 0 -12
-10 -16 -40 -16 -23 0 -40 -5 -40 -11 0 -14 153 -2 158 12 5 12 82 11 82 -1 0
-5 18 -10 40 -10 22 0 40 5 40 10 0 6 18 10 40 10 27 0 40 -4 40 -14 0 -17
-89 -28 -264 -31 -76 -2 -131 -7 -135 -13 -3 -6 -24 -12 -46 -15 l-40 -4 43
-1 c23 -1 42 -6 42 -12 0 -5 18 -10 40 -10 22 0 40 5 40 10 0 6 18 10 40 10
27 0 40 -4 40 -14 0 -17 -149 -34 -159 -18 -9 15 -161 27 -161 13 0 -6 17 -11
40 -11 22 0 40 -4 40 -10 0 -6 -33 -10 -80 -10 -64 0 -80 -3 -80 -15 0 -11
-11 -15 -40 -15 -22 0 -40 -4 -40 -10 0 -6 33 -10 80 -10 47 0 80 4 80 10 0 6
33 10 80 10 177 0 43 -26 -232 -46 -66 -4 -88 -9 -88 -20 0 -10 -12 -14 -40
-14 -22 0 -40 -4 -40 -10 0 -6 33 -10 80 -10 47 0 80 4 80 10 0 6 18 10 40 10
28 0 40 -4 40 -14 0 -19 -133 -30 -240 -21 -56 5 -80 4 -80 -4 0 -6 17 -11 40
-11 71 0 43 -18 -40 -25 -44 -4 -80 -11 -80 -16 0 -5 36 -9 80 -9 47 0 80 4
80 10 0 6 18 10 40 10 28 0 40 -4 40 -14 0 -10 -21 -16 -80 -20 -44 -3 -116
-9 -160 -12 -59 -4 -80 -10 -80 -20 0 -8 7 -14 15 -14 21 0 19 -17 -4 -30 -27
-14 -88 -13 -93 2 -3 8 -15 1 -34 -17 l-29 -30 73 -3 c57 -2 72 -6 72 -18 0
-14 -11 -15 -81 -9 -79 7 -81 7 -111 -21 l-30 -29 53 -5 c47 -4 51 -7 37 -20
-10 -11 -29 -14 -61 -12 -38 3 -47 8 -47 23 0 15 -7 19 -39 19 -32 0 -47 -7
-80 -39 -23 -22 -41 -45 -41 -52 0 -7 -14 -27 -30 -45 -28 -28 -35 -31 -80
-26 -36 3 -50 1 -50 -8 0 -6 -15 -26 -32 -42 -30 -28 -31 -31 -14 -38 19 -6
19 -7 -4 -30 -21 -21 -24 -22 -30 -6 -5 15 -9 14 -30 -9 -14 -15 -25 -34 -25
-42 0 -9 -6 -18 -12 -20 -7 -3 -13 0 -13 6 0 6 -18 11 -40 11 -22 0 -40 -4
-40 -10 0 -5 18 -10 39 -10 22 0 42 -6 44 -12 4 -9 14 -4 31 15 14 15 28 27
32 27 5 0 -7 -16 -26 -35 -19 -19 -36 -31 -39 -26 -3 4 -27 10 -53 13 -45 5
-49 4 -73 -28 -15 -19 -30 -32 -36 -29 -5 4 -40 -26 -78 -64 -39 -39 -75 -71
-81 -71 -14 0 -80 -66 -80 -81 0 -6 -15 -25 -32 -41 -30 -28 -31 -31 -14 -38
19 -6 19 -7 -2 -28 -12 -12 -28 -19 -35 -16 -16 6 -41 -21 -32 -35 8 -14 -31
-52 -48 -45 -16 6 -41 -21 -32 -35 8 -14 -31 -52 -48 -45 -16 6 -41 -21 -32
-35 7 -12 -33 -56 -43 -47 -3 4 3 12 13 20 10 7 15 18 11 24 -4 7 38 57 105
123 61 60 109 113 106 116 -7 6 -237 -224 -237 -237 0 -6 -32 -42 -71 -81 -38
-38 -68 -73 -64 -78 3 -6 -10 -22 -30 -37 -31 -23 -35 -32 -35 -71 0 -51 -16
-87 -35 -80 -7 3 -25 -7 -40 -23 -27 -28 -27 -30 -20 -109 6 -70 5 -81 -9 -81
-12 0 -16 15 -18 71 l-3 71 -23 -18 c-13 -11 -24 -26 -25 -34 -2 -8 -7 -21
-12 -29 -7 -12 -10 -11 -16 5 -5 13 -8 7 -8 -23 -1 -24 -5 -43 -10 -43 -5 0
-12 -36 -16 -80 -4 -44 -12 -80 -17 -80 -7 0 -8 29 -3 80 5 56 4 80 -4 80 -6
0 -11 -17 -11 -40 0 -32 -4 -40 -19 -40 -16 0 -20 -15 -31 -120 -9 -88 -17
-120 -26 -120 -10 0 -14 13 -14 40 0 22 5 40 10 40 6 0 10 18 10 40 0 29 -4
40 -15 40 -11 0 -15 -11 -15 -40 0 -22 -4 -40 -10 -40 -6 0 -11 -35 -11 -82
l-2 -83 -10 83 c-5 45 -14 82 -20 82 -6 0 -7 -22 -3 -60 3 -33 9 -87 12 -120
6 -52 5 -60 -10 -60 -13 0 -16 12 -16 80 0 62 -3 80 -14 80 -10 0 -16 -21 -20
-80 -3 -44 -9 -116 -12 -160 -4 -59 -10 -80 -20 -80 -10 0 -14 12 -14 40 0 22
5 40 10 40 6 0 10 33 10 80 0 44 -4 80 -9 80 -5 0 -12 -36 -16 -80 -7 -83 -25
-111 -25 -40 0 22 -4 40 -10 40 -6 0 -8 -43 -3 -120 4 -88 3 -120 -5 -120 -8
0 -12 26 -12 80 0 44 -4 80 -9 80 -5 0 -12 -36 -16 -80 -7 -83 -25 -111 -25
-40 0 23 -5 40 -11 40 -8 0 -9 -24 -4 -80 9 -107 -2 -240 -21 -240 -10 0 -14
12 -14 40 0 22 5 40 10 40 6 0 10 33 10 80 0 47 -4 80 -10 80 -5 0 -10 -18
-10 -40 0 -28 -4 -40 -14 -40 -10 0 -16 -21 -20 -80 -3 -44 -9 -116 -12 -160
-4 -59 -10 -80 -20 -80 -10 0 -14 12 -14 40 0 22 5 40 10 40 6 0 10 18 10 40
0 22 -4 40 -10 40 -5 0 -10 18 -10 40 0 22 -4 40 -9 40 -10 0 -21 -97 -21
-181 0 -33 -4 -59 -10 -59 -5 0 -10 18 -10 40 0 23 -5 40 -11 40 -14 0 -2
-152 13 -161 16 -10 -1 -159 -18 -159 -10 0 -14 13 -14 40 0 22 5 40 10 40 6
0 10 18 10 40 0 35 -3 40 -24 40 -22 0 -24 -5 -31 -75 -3 -41 -4 -79 0 -85 4
-7 1 -63 -6 -126 -9 -82 -16 -114 -26 -114 -9 0 -13 13 -13 40 0 22 5 40 10
40 6 0 10 18 10 40 0 22 -4 40 -10 40 -12 0 -13 77 -1 82 14 5 26 158 12 158
-6 0 -11 -17 -11 -40 0 -30 -4 -40 -16 -40 -14 0 -15 -10 -9 -80 5 -51 4 -80
-3 -80 -5 0 -13 -36 -17 -80 -4 -44 -11 -80 -16 -80 -13 0 -11 -78 2 -82 17
-6 1 -158 -17 -158 -10 0 -14 13 -14 40 0 22 5 40 10 40 6 0 10 18 10 40 0 22
-4 40 -9 40 -6 0 -12 19 -14 43 l-4 42 -1 -42 c-1 -24 -6 -43 -10 -43 -5 0
-12 -53 -15 -117 -4 -66 -11 -119 -17 -121 -13 -5 -13 -82 0 -82 6 0 10 -33
10 -80 0 -47 -4 -80 -10 -80 -5 0 -10 -18 -10 -40 0 -22 -4 -40 -10 -40 -5 0
-10 18 -10 40 0 22 5 40 10 40 6 0 10 33 10 80 0 47 -4 80 -10 80 -12 0 -13
77 -1 82 13 4 26 158 14 158 -6 0 -16 -54 -23 -120 -7 -66 -16 -120 -20 -120
-4 0 -10 -71 -12 -157 -4 -102 -10 -159 -17 -161 -14 -5 -15 -162 -2 -162 6 0
12 17 14 38 2 20 1 -12 -2 -73 -8 -151 -7 -1153 0 -1295 l7 -115 -13 90 c-7
50 -14 123 -14 163 -1 41 -5 72 -11 72 -7 0 -10 153 -10 440 0 287 3 440 10
440 6 0 10 47 10 120 0 73 -4 120 -10 120 -13 0 -13 157 0 162 14 4 27 238 13
238 -6 0 -13 -43 -17 -100 -3 -55 -9 -145 -12 -200 -4 -55 -11 -100 -15 -100
-5 0 -9 -18 -9 -40 0 -22 -4 -40 -10 -40 -6 0 -10 -33 -10 -79 0 -53 -4 -81
-12 -83 -16 -6 -15 -871 1 -876 6 -2 11 -21 11 -43 0 -21 5 -39 10 -39 6 0 10
-33 10 -80 0 -79 0 -80 25 -80 25 0 25 -1 25 -79 0 -50 4 -81 11 -83 7 -2 13
-59 17 -161 2 -86 8 -157 12 -157 4 0 13 -54 20 -120 7 -66 17 -120 23 -120
12 0 -1 154 -14 158 -12 5 -11 82 1 82 6 0 10 18 10 40 0 22 -4 40 -10 40 -6
0 -10 47 -10 120 0 66 4 120 9 120 5 0 12 -36 15 -80 3 -44 9 -116 12 -160 4
-55 3 -80 -5 -80 -14 0 -15 -77 -1 -82 6 -2 13 -55 17 -121 6 -114 7 -117 30
-117 20 0 23 5 23 40 0 22 -4 40 -10 40 -6 0 -10 33 -10 80 0 44 4 80 8 80 14
0 37 -233 23 -238 -6 -2 -11 -21 -11 -43 0 -21 -4 -39 -10 -39 -5 0 -10 -18
-10 -40 0 -22 5 -40 10 -40 6 0 10 18 10 40 0 23 5 40 11 40 8 0 9 -24 4 -80
-5 -56 -4 -80 4 -80 6 0 11 17 11 40 0 22 5 40 10 40 6 0 10 -26 10 -59 0 -84
11 -181 21 -181 5 0 9 18 9 40 0 22 -4 40 -10 40 -5 0 -10 18 -10 40 0 22 5
40 10 40 6 0 10 18 10 40 0 22 -4 40 -10 40 -5 0 -10 18 -10 40 0 27 4 40 14
40 18 0 34 -152 17 -158 -13 -4 -15 -82 -2 -82 5 0 12 -36 16 -80 4 -44 11
-80 15 -80 5 0 11 -19 13 -42 l4 -43 1 43 c1 23 7 42 12 42 6 0 10 18 10 40 0
22 -4 40 -10 40 -5 0 -10 18 -10 40 0 27 4 40 14 40 17 0 34 -149 18 -159 -15
-9 -27 -161 -13 -161 6 0 11 17 11 40 0 22 5 40 10 40 6 0 10 -33 10 -80 0
-64 3 -80 15 -80 11 0 15 -11 15 -40 0 -22 5 -40 10 -40 6 0 10 18 10 40 0 22
-4 40 -10 40 -6 0 -10 33 -10 80 0 67 3 80 16 80 14 0 15 -10 9 -80 -5 -54 -4
-80 3 -80 6 0 13 17 15 38 2 20 3 12 1 -18 -2 -30 2 -101 8 -157 10 -89 14
-103 30 -103 16 0 18 9 18 80 0 47 -4 80 -10 80 -5 0 -10 18 -10 40 0 28 4 40
14 40 10 0 16 -21 20 -80 3 -44 9 -116 12 -160 4 -59 10 -80 20 -80 10 0 14
-12 14 -40 0 -22 5 -40 10 -40 6 0 10 33 10 80 0 47 -4 80 -10 80 -5 0 -10 18
-10 40 0 28 4 40 14 40 10 0 16 -21 20 -80 3 -44 9 -116 12 -160 5 -70 9 -80
25 -80 15 0 19 -7 19 -40 0 -23 5 -40 11 -40 14 0 2 153 -12 158 -15 6 -11 82
5 82 9 0 17 -32 26 -120 7 -66 17 -120 21 -120 4 0 10 -19 12 -42 2 -24 4 -6
5 40 2 69 5 82 18 82 14 0 16 -8 11 -58 -4 -31 -9 -85 -13 -119 -5 -45 -3 -63
5 -63 6 0 11 17 11 40 0 23 5 40 11 40 8 0 10 -17 7 -51 -4 -42 -2 -53 13 -62
11 -7 19 -18 19 -25 0 -7 17 -29 37 -50 l38 -37 3 73 c2 57 6 72 18 72 14 0
15 -12 9 -82 -7 -82 -7 -83 23 -111 26 -25 29 -33 25 -80 -2 -34 0 -45 5 -33
7 16 10 17 17 5 5 -8 10 -21 12 -29 1 -8 12 -23 25 -34 l23 -18 3 71 c2 56 6
71 18 71 14 0 15 -12 9 -82 -7 -81 -6 -84 20 -108 14 -14 34 -25 43 -25 9 0
17 -8 17 -17 0 -22 42 -66 62 -64 9 0 18 -5 20 -11 9 -26 -38 -12 -66 19 -16
18 -33 30 -37 25 -4 -4 2 -14 14 -23 12 -8 22 -22 22 -30 0 -9 32 -47 72 -85
40 -38 73 -76 74 -83 3 -18 511 -527 529 -530 8 -1 43 -32 79 -69 65 -67 66
-67 121 -67 44 0 60 -5 78 -23 l22 -22 -27 -3 c-49 -6 -34 -32 17 -32 32 0 51
-6 66 -21 11 -11 18 -24 14 -27 -4 -4 -11 1 -16 11 -7 12 -23 17 -59 17 -28 0
-50 -4 -50 -10 0 -5 18 -10 41 -10 32 0 46 -6 68 -31 16 -17 34 -31 42 -32 8
-2 20 -7 28 -12 12 -7 11 -10 -5 -17 -12 -5 -1 -7 33 -5 47 4 55 1 80 -25 28
-30 29 -30 111 -23 70 6 82 5 82 -9 0 -12 -15 -16 -72 -18 l-73 -3 37 -37 c29
-30 45 -38 73 -38 24 0 35 -4 35 -15 0 -11 11 -15 40 -15 22 0 40 -4 40 -10 0
-5 -18 -10 -40 -10 -23 0 -40 -5 -40 -11 0 -8 17 -10 58 -6 193 21 182 21 182
3 0 -13 -13 -16 -82 -18 -46 -1 -64 -3 -40 -5 23 -2 42 -8 42 -14 0 -5 18 -9
40 -9 22 0 40 -4 40 -10 0 -5 -18 -10 -40 -10 -23 0 -40 -5 -40 -11 0 -8 18
-10 60 -5 33 3 87 9 120 12 52 6 60 5 60 -10 0 -13 -12 -16 -80 -16 -61 0 -80
-3 -80 -14 0 -16 91 -27 177 -22 32 2 41 1 21 -1 -21 -2 -38 -9 -38 -15 0 -7
26 -8 80 -3 70 6 80 5 80 -9 0 -13 -13 -16 -80 -16 -47 0 -80 4 -80 10 0 6
-18 10 -40 10 -22 0 -40 -4 -40 -10 0 -5 18 -10 40 -10 27 0 40 -4 40 -14 0
-16 91 -27 178 -22 31 2 40 1 20 -1 -21 -2 -38 -9 -38 -15 0 -7 26 -8 80 -3
70 6 80 5 80 -9 0 -13 -13 -16 -80 -16 -47 0 -80 4 -80 10 0 6 -18 10 -40 10
-22 0 -40 -4 -40 -10 0 -5 18 -10 40 -10 29 0 40 -4 40 -15 0 -12 16 -15 80
-15 47 0 80 -4 80 -10 0 -5 -18 -10 -40 -10 -23 0 -40 -5 -40 -11 0 -14 153
-2 158 12 5 12 82 11 82 -1 0 -5 -18 -10 -40 -10 -22 0 -40 -4 -40 -9 0 -6
-19 -12 -42 -14 l-43 -4 43 -1 c23 -1 42 -6 42 -11 0 -5 39 -12 88 -15 168
-12 312 -29 312 -38 0 -11 -157 -11 -162 0 -5 13 -238 24 -238 12 0 -5 18 -10
40 -10 27 0 40 -4 40 -14 0 -14 79 -26 181 -26 33 0 59 -4 59 -10 0 -5 -18
-10 -40 -10 -23 0 -40 -5 -40 -11 0 -14 152 -2 161 13 10 16 159 -1 159 -18 0
-10 -13 -14 -40 -14 -22 0 -40 5 -40 10 0 6 -18 10 -40 10 -22 0 -40 -4 -40
-9 0 -6 -19 -12 -42 -14 -24 -2 -6 -4 40 -5 47 -1 82 -6 82 -12 0 -5 18 -10
40 -10 22 0 40 -4 40 -10 0 -5 -18 -10 -40 -10 -22 0 -40 5 -40 10 0 6 -18 10
-40 10 -22 0 -40 -4 -40 -10 0 -5 18 -10 39 -10 22 0 41 -4 43 -10 4 -12 238
-1 238 12 0 4 -19 8 -42 8 -23 0 -38 3 -35 6 9 9 317 -28 317 -38 0 -4 -36 -8
-80 -8 -47 0 -80 4 -80 10 0 6 -18 10 -40 10 -22 0 -40 -4 -40 -10 0 -6 -35
-11 -82 -12 -46 -1 -64 -3 -40 -5 23 -2 42 -8 42 -14 0 -5 26 -9 59 -9 87 0
181 -12 181 -22 0 -6 -31 -7 -80 -3 -51 4 -80 3 -80 -3 0 -14 153 -27 158 -13
2 7 34 11 83 11 51 0 79 4 79 11 0 8 25 9 80 5 44 -3 116 -9 160 -12 44 -3 80
-10 80 -15 0 -5 -54 -9 -120 -9 -73 0 -120 4 -120 10 0 6 -18 10 -40 10 -22 0
-40 -4 -40 -9 0 -6 -19 -12 -42 -14 l-43 -4 43 -1 c23 -1 42 -6 42 -11 0 -5
72 -12 160 -16 88 -4 160 -11 160 -16 0 -5 36 -9 80 -9 82 0 111 16 43 23 -21
2 3 1 52 -2 50 -3 336 -5 638 -5 301 0 547 -3 547 -8 0 -4 36 -8 80 -8 44 0
80 4 80 9 0 5 72 12 160 16 88 4 160 11 160 15 0 4 54 13 120 20 66 7 120 17
120 21 0 5 18 9 40 9 22 0 40 5 40 10 0 12 -77 13 -82 1 -5 -14 -158 -26 -158
-12 0 6 -17 11 -40 11 -22 0 -40 -4 -40 -10 0 -5 18 -10 40 -10 22 0 40 -4 40
-10 0 -5 -18 -10 -40 -10 -22 0 -40 5 -40 10 0 6 -18 10 -40 10 -22 0 -40 -4
-40 -10 0 -6 -33 -10 -80 -10 -60 0 -80 3 -80 13 0 15 138 28 353 32 85 1 121
6 127 15 6 10 34 12 124 7 100 -6 116 -5 116 8 0 11 11 15 40 15 23 0 40 5 40
11 0 14 -153 2 -158 -12 -2 -5 -57 -9 -123 -9 -104 0 -119 2 -119 17 0 14 12
15 120 10 72 -4 120 -3 120 3 0 5 -19 10 -42 12 -24 2 29 4 117 5 100 1 161 6
163 13 2 5 21 10 43 10 21 0 39 5 39 10 0 6 18 10 40 10 22 0 40 5 40 10 0 12
-233 1 -238 -12 -2 -4 -26 -8 -53 -8 -48 0 -49 1 -49 30 0 17 5 30 10 30 6 0
10 -7 10 -16 0 -14 9 -16 63 -11 34 4 124 9 200 13 99 5 137 10 137 19 0 9 26
15 80 20 44 4 80 11 80 16 0 11 -234 -1 -238 -13 -6 -15 -82 -9 -82 6 0 10 21
16 80 20 44 3 116 9 160 12 44 3 80 10 80 14 0 5 19 11 43 13 l42 4 -42 1
c-24 1 -43 7 -43 12 0 6 -18 10 -40 10 -22 0 -40 -4 -40 -10 0 -5 -18 -10 -40
-10 -22 0 -40 5 -40 10 0 6 18 10 40 10 22 0 40 5 40 10 0 12 77 13 82 1 5
-14 158 -26 158 -12 0 6 -17 11 -40 11 -22 0 -40 5 -40 10 0 6 33 10 80 10 64
0 80 3 80 15 0 11 11 15 40 15 22 0 40 5 40 10 0 6 -18 10 -40 10 -22 0 -40
-4 -40 -10 0 -6 -37 -10 -90 -10 l-90 0 0 30 c0 17 5 30 10 30 6 0 10 -6 10
-14 0 -12 76 -26 141 -26 35 0 19 19 -18 23 -21 2 -12 3 20 1 86 -5 177 6 177
22 0 11 -26 14 -120 14 -66 0 -120 4 -120 9 0 14 131 22 200 11 81 -12 120
-13 120 -1 0 4 -37 13 -82 18 l-83 10 123 2 c101 1 122 4 122 16 0 12 -16 15
-80 15 -68 0 -80 3 -80 16 0 18 -11 18 183 -3 35 -4 57 -2 57 4 0 6 -37 15
-82 20 l-83 10 83 2 c66 1 82 4 82 16 0 8 5 15 11 15 7 0 23 12 36 26 13 14
27 23 31 19 4 -3 -1 -11 -11 -16 -25 -14 -21 -29 8 -29 16 0 25 6 25 15 0 8 9
15 20 15 11 0 20 5 20 10 0 6 -9 10 -20 10 -11 0 -20 4 -20 9 0 11 50 21 101
21 22 0 39 5 39 10 0 6 -33 10 -80 10 -47 0 -80 4 -80 10 0 6 33 10 80 10 63
0 80 3 80 14 0 10 14 16 43 19 23 2 5 4 -40 5 -69 2 -83 5 -83 18 0 14 11 15
83 9 l82 -7 29 31 c25 26 37 31 78 31 26 0 48 5 48 10 0 6 -33 10 -80 10 -47
0 -80 4 -80 10 0 6 33 10 80 10 64 0 80 3 80 15 0 11 12 15 43 16 30 0 36 3
23 8 -16 6 -17 9 -5 16 8 5 21 10 29 12 8 1 23 12 34 25 l18 23 -31 3 c-47 5
-37 22 12 22 35 0 49 6 72 30 16 17 35 30 43 30 7 0 25 14 39 30 13 17 30 30
36 30 6 0 -2 -14 -18 -30 -42 -44 -17 -37 34 10 24 22 50 40 57 40 8 0 14 5
14 10 0 6 -33 10 -80 10 -47 0 -80 4 -80 10 0 6 33 10 80 10 64 0 80 3 80 15
0 11 12 15 43 16 28 0 36 3 24 8 -17 6 -17 8 -3 20 9 7 16 18 16 24 0 6 -13
-2 -30 -18 -16 -16 -30 -24 -30 -18 0 25 61 63 103 64 30 0 36 3 23 8 -16 6
-17 9 -5 16 8 5 19 10 26 11 15 3 204 192 207 207 3 20 17 38 26 32 12 -7 51
27 54 47 1 10 34 49 74 87 40 38 72 76 72 85 0 8 10 22 22 30 12 9 18 19 14
23 -4 5 -21 -7 -37 -25 -28 -31 -75 -45 -66 -19 2 6 11 12 21 12 9 0 46 29 81
64 l65 65 0 83 c0 102 18 111 22 11 l3 -73 38 37 c36 36 47 58 27 58 -5 0 -13
-8 -19 -17 -5 -10 -12 -15 -16 -11 -10 9 34 50 46 43 20 -13 39 17 39 62 0 46
14 83 30 83 6 0 10 -7 10 -15 0 -8 -4 -15 -10 -15 -5 0 -10 -18 -10 -40 0 -22
5 -40 10 -40 6 0 10 18 10 40 0 29 4 40 15 40 11 0 15 12 15 45 0 32 6 51 21
66 11 11 24 18 27 14 4 -4 -1 -11 -11 -16 -12 -7 -17 -23 -17 -59 0 -28 5 -50
10 -50 6 0 10 18 10 40 0 32 4 40 19 40 15 0 19 11 25 61 9 92 7 179 -4 179
-5 0 -10 5 -10 10 0 6 14 10 30 10 17 0 30 -4 30 -10 0 -5 -4 -10 -10 -10 -6
0 -10 -33 -10 -80 0 -44 4 -80 9 -80 5 0 12 36 16 80 7 83 25 111 25 40 0 -22
4 -40 9 -40 12 0 22 112 14 180 -5 52 -4 60 11 60 13 0 16 -11 16 -60 0 -57
10 -75 26 -48 5 7 7 53 7 103 l-1 90 10 -82 c12 -96 34 -117 24 -23 -3 33 -9
87 -12 120 -6 52 -5 60 10 60 11 0 16 -9 16 -32 l0 -32 31 30 31 29 -7 83 c-6
71 -5 82 9 82 13 0 16 -14 16 -80 0 -62 3 -80 14 -80 10 0 16 22 21 80 4 44
12 80 17 80 7 0 8 29 3 80 -6 70 -5 80 9 80 13 0 16 -13 16 -80 0 -47 -4 -80
-10 -80 -5 0 -10 -18 -10 -40 0 -71 18 -43 25 40 4 44 10 80 15 80 4 0 10 53
13 117 4 66 11 119 17 121 5 2 10 21 10 43 0 21 5 39 10 39 6 0 10 -18 10 -40
0 -22 -4 -40 -10 -40 -5 0 -10 -18 -10 -40 0 -22 5 -40 10 -40 6 0 11 -19 12
-42 l1 -43 4 40 c3 22 10 43 16 47 7 4 11 49 11 125 1 65 2 99 4 76 2 -24 8
-43 14 -43 7 0 8 26 3 80 -6 70 -5 80 9 80 13 0 16 -13 16 -79 0 -44 -4 -81
-9 -83 -13 -5 -26 -158 -13 -158 5 0 13 36 17 80 5 58 11 80 21 80 11 0 14 18
14 80 0 47 4 80 10 80 6 0 10 -18 10 -40 0 -23 5 -40 11 -40 14 0 2 152 -13
161 -13 8 11 239 24 239 4 0 8 -36 8 -80 0 -47 -4 -80 -10 -80 -5 0 -10 -18
-10 -40 0 -22 5 -40 10 -40 6 0 11 -19 12 -42 l1 -43 4 40 c3 22 9 42 14 45 5
4 11 85 13 181 5 218 14 299 32 299 10 0 14 -13 14 -40 0 -22 -4 -40 -10 -40
-5 0 -10 -18 -10 -40 0 -22 5 -40 10 -40 6 0 10 -18 10 -40 0 -22 -4 -40 -10
-40 -5 0 -10 18 -10 40 0 22 -4 40 -10 40 -5 0 -10 -18 -10 -40 0 -23 5 -40
11 -40 8 0 9 -24 4 -80 -4 -47 -3 -80 2 -80 11 0 33 178 33 263 0 31 4 57 9
57 5 0 12 36 16 80 4 44 11 80 16 80 5 0 9 18 9 40 0 23 -5 40 -11 40 -8 0 -9
25 -5 80 3 44 9 116 12 160 3 44 10 80 15 80 5 0 9 -54 9 -120 0 -73 -4 -120
-10 -120 -5 0 -10 -18 -10 -40 0 -22 5 -40 10 -40 6 0 10 -18 10 -40 0 -22 -4
-40 -9 -40 -5 0 -12 -36 -16 -80 -4 -44 -11 -80 -16 -80 -5 0 -9 -18 -9 -40 0
-22 5 -40 10 -40 6 0 10 18 10 40 0 22 4 40 9 40 4 0 14 54 21 120 7 66 16
120 20 120 4 0 10 71 12 157 4 102 10 159 17 161 14 5 15 162 2 162 -6 0 -12
-17 -14 -37 -2 -21 -1 3 2 52 3 50 5 313 5 585 0 272 -2 536 -5 585 -3 50 -4
73 -2 53 2 -21 8 -38 14 -38 13 0 12 157 -2 162 -7 2 -13 59 -17 161 -2 86 -8
157 -13 157 -4 0 -10 19 -12 43 l-4 42 -1 -42 c-1 -24 -6 -43 -12 -43 -5 0
-10 -18 -10 -40 0 -22 5 -40 10 -40 6 0 10 -33 10 -80 0 -60 -3 -80 -14 -80
-10 0 -15 27 -20 108 -3 59 -8 130 -10 157 -2 28 -1 33 1 13 8 -68 23 -40 23
41 0 49 4 81 11 83 14 5 1 158 -13 158 -6 0 -7 -29 -3 -80 4 -49 3 -80 -3 -80
-10 0 -22 94 -22 181 0 33 -4 59 -9 59 -6 0 -12 19 -14 43 l-4 42 -1 -42 c-1
-24 -6 -43 -12 -43 -6 0 -10 -33 -10 -80 0 -47 4 -80 10 -80 6 0 10 -18 10
-40 0 -27 -4 -40 -14 -40 -9 0 -15 20 -20 61 -9 88 -8 177 3 181 14 5 26 158
12 158 -6 0 -11 -17 -11 -40 0 -22 -4 -40 -10 -40 -6 0 -10 33 -10 80 0 44 -4
80 -9 80 -6 0 -12 19 -14 43 l-4 42 -1 -42 c-1 -24 -6 -43 -12 -43 -5 0 -10
-18 -10 -40 0 -22 5 -40 10 -40 6 0 10 -18 10 -40 0 -27 -4 -40 -14 -40 -17 0
-34 149 -18 159 15 9 27 161 13 161 -6 0 -11 -17 -11 -40 0 -22 -4 -40 -10
-40 -6 0 -10 33 -10 80 0 47 -4 80 -10 80 -5 0 -10 18 -10 40 0 22 -4 40 -10
40 -5 0 -10 18 -10 40 0 22 -5 40 -10 40 -12 0 -1 -233 12 -238 15 -6 9 -82
-6 -82 -10 0 -16 21 -20 80 -3 44 -9 116 -12 160 -3 44 -10 80 -14 80 -4 0
-11 36 -15 80 -7 83 -25 111 -25 40 0 -22 -4 -40 -10 -40 -5 0 -10 -18 -10
-40 0 -22 5 -40 10 -40 6 0 10 18 10 40 0 22 5 40 10 40 6 0 10 -18 10 -40 0
-22 -4 -40 -10 -40 -5 0 -10 -18 -10 -40 0 -22 5 -40 10 -40 6 0 10 -18 10
-40 0 -22 -4 -40 -10 -40 -5 0 -10 18 -10 39 0 22 -5 41 -12 43 -8 3 -12 43
-13 124 -3 190 -3 194 -20 194 -11 0 -15 11 -15 40 0 22 -4 40 -10 40 -5 0
-10 -18 -10 -40 0 -22 5 -40 10 -40 6 0 10 -33 10 -80 0 -67 -3 -80 -16 -80
-14 0 -15 10 -9 80 5 54 4 80 -3 80 -6 0 -13 -17 -15 -37 -2 -21 -3 -12 -1 19
5 87 -6 178 -22 178 -10 0 -14 13 -14 40 0 22 -4 40 -10 40 -6 0 -10 -33 -10
-80 0 -47 -4 -80 -10 -80 -6 0 -10 26 -10 59 0 102 -12 181 -26 181 -11 0 -14
-19 -14 -80 0 -68 -3 -80 -16 -80 -15 0 -16 8 -10 60 3 33 9 87 12 120 4 38 3
60 -3 60 -6 0 -15 -37 -20 -82 l-10 -83 -2 83 c0 47 -5 82 -11 82 -5 0 -10 18
-10 40 0 24 -5 40 -12 40 -7 0 -26 14 -44 30 -28 28 -31 35 -26 80 3 36 1 50
-8 50 -6 0 -26 15 -43 33 l-32 32 -5 -60 -5 -60 -22 23 c-18 17 -23 32 -21 70
l1 47 4 -42 c5 -56 23 -56 23 0 0 34 -6 49 -28 71 -26 24 -28 32 -24 76 3 35
1 50 -8 50 -6 0 -26 15 -43 33 l-32 32 -3 -72 c-2 -59 -6 -73 -19 -73 -13 0
-14 10 -8 74 7 82 -2 103 -58 132 -16 9 -26 21 -24 29 3 7 -8 25 -24 41 -16
15 -29 34 -29 42 0 7 -13 25 -30 39 -16 13 -30 30 -30 36 0 6 14 -2 30 -18 52
-50 33 -10 -22 45 -29 29 -53 59 -54 67 -1 7 -50 60 -108 117 -58 58 -106 110
-106 116 0 14 -70 84 -77 76 -3 -3 9 -19 26 -35 19 -18 30 -35 25 -42 -4 -7 1
-18 11 -25 10 -8 16 -16 13 -20 -10 -9 -50 35 -43 47 9 14 -16 41 -32 35 -7
-3 -23 4 -35 16 -20 20 -21 22 -3 28 15 5 1 24 -84 109 -56 57 -108 104 -116
105 -8 1 -46 34 -84 74 -38 40 -76 72 -84 72 -8 0 -27 16 -41 35 -15 20 -32
33 -37 29 -5 -3 -23 9 -40 27 -16 17 -32 29 -36 26 -3 -4 9 -20 27 -37 18 -17
30 -33 27 -36 -3 -3 -19 9 -36 26 l-30 32 -75 -7 c-66 -6 -76 -5 -76 8 0 13
14 17 71 19 l71 3 -18 23 c-11 13 -26 24 -34 25 -24 4 -41 18 -35 28 4 5 -3 9
-14 9 -17 0 -21 6 -21 35 0 32 -2 34 -27 30 -56 -10 -185 -25 -209 -25 -14 0
-24 6 -24 15 0 11 17 15 73 17 l72 3 -37 38 c-21 20 -43 37 -50 37 -7 0 -19 9
-26 20 -7 11 -21 20 -32 20 -10 0 -26 10 -34 22 -9 12 -19 18 -23 14 -5 -4 7
-21 25 -38 19 -16 31 -32 28 -36 -4 -3 -22 9 -40 27 -30 29 -35 31 -38 15 -3
-17 -6 -16 -29 9 -15 15 -30 27 -35 27 -4 0 10 -18 31 -40 21 -22 33 -40 26
-40 -7 0 -22 11 -33 25 -16 21 -28 25 -69 25 -37 0 -49 4 -49 15 0 11 11 15
40 15 27 0 40 4 40 14 0 9 -32 17 -120 26 -88 9 -120 17 -120 26 0 16 76 20
82 5 5 -14 158 -26 158 -12 0 6 -17 11 -40 11 -33 0 -40 4 -40 19 0 16 -10 20
-80 25 -44 3 -116 9 -160 12 -59 4 -80 10 -80 20 0 10 12 14 40 14 22 0 40 -4
40 -10 0 -6 33 -10 80 -10 47 0 80 4 80 10 0 6 -18 10 -40 10 -28 0 -40 4 -40
14 0 10 -21 16 -80 20 -44 3 -116 9 -160 12 -59 4 -80 10 -80 20 0 10 12 14
40 14 22 0 40 -4 40 -10 0 -6 33 -10 80 -10 47 0 80 4 80 10 0 6 -18 10 -40
10 -28 0 -40 4 -40 14 0 10 -22 16 -80 21 -44 4 -80 12 -80 17 0 7 -29 8 -80
3 -70 -6 -80 -5 -80 9 0 13 13 16 80 16 47 0 80 -4 80 -10 0 -5 18 -10 40 -10
22 0 40 5 40 10 0 6 -18 10 -40 10 -29 0 -40 4 -40 15 0 12 -16 15 -80 15 -47
0 -80 4 -80 10 0 6 18 10 40 10 23 0 40 5 40 11 0 14 -152 2 -161 -13 -10 -16
-159 1 -159 18 0 10 13 14 40 14 22 0 40 -4 40 -10 0 -5 18 -10 40 -10 22 0
40 5 40 10 0 6 15 11 33 11 23 1 26 3 10 6 -19 4 -23 11 -23 39 0 19 -4 34
-10 34 -5 0 -10 -6 -10 -13 0 -9 -30 -17 -100 -25 -117 -14 -300 1 -300 25 0
9 14 13 40 13 22 0 40 -4 40 -10 0 -5 18 -10 40 -10 22 0 40 5 40 10 0 6 18
10 40 10 22 0 40 -4 40 -10 0 -5 -18 -10 -40 -10 -22 0 -40 -4 -40 -10 0 -5
18 -10 40 -10 22 0 40 5 40 10 0 6 18 10 40 10 22 0 40 4 40 9 0 10 -97 21
-181 21 -33 0 -59 4 -59 10 0 6 18 10 40 10 23 0 40 5 40 11 0 8 -24 9 -80 4
-56 -5 -80 -4 -80 4 0 14 -77 14 -82 0 -6 -17 -158 -1 -158 17 0 10 13 14 40
14 22 0 40 -4 40 -10 0 -5 18 -10 40 -10 22 0 40 5 40 10 0 6 18 10 40 10 22
0 40 -4 40 -10 0 -5 18 -10 40 -10 69 0 43 17 -37 25 -43 4 -81 11 -84 16 -3
5 -77 11 -165 13 -264 6 -394 17 -394 33 0 10 20 13 80 13 47 0 80 -4 80 -10
0 -5 18 -10 40 -10 22 0 40 5 40 10 0 6 18 10 40 10 22 0 40 -4 40 -10 0 -5
-18 -10 -40 -10 -22 0 -40 -4 -40 -10 0 -5 18 -10 40 -10 23 0 40 5 40 11 0 8
24 9 80 4 129 -11 94 10 -40 25 -66 7 -120 17 -120 21 0 5 -18 9 -40 9 -22 0
-40 5 -40 10 0 6 -18 10 -40 10 -22 0 -40 4 -40 8 0 10 -182 32 -262 32 -32 0
-58 4 -58 10 0 6 -18 10 -40 10 -22 0 -40 5 -40 10 0 6 -33 10 -79 10 -44 0
-81 4 -83 9 -3 9 -459 18 -715 13z m715 -33 c2 -5 39 -9 83 -9 46 0 79 -4 79
-10 0 -14 -157 -13 -162 1 -5 15 -871 16 -876 0 -5 -14 -82 -15 -82 -1 0 6 18
10 40 10 22 0 40 4 40 10 0 18 871 17 878 -1z m1522 -339 c0 -5 -18 -10 -40
-10 -22 0 -40 5 -40 10 0 6 18 10 40 10 22 0 40 -4 40 -10z m-4600 -375 c-18
-19 -35 -33 -37 -31 -6 5 50 63 61 65 6 0 -5 -15 -24 -34z m120 20 c0 -11 -11
-15 -40 -15 -29 0 -40 4 -40 15 0 11 11 15 40 15 29 0 40 -4 40 -15z m-257
-112 c-13 -2 -33 -2 -45 0 -13 2 -3 4 22 4 25 0 35 -2 23 -4z m-183 -53 c-10
-19 -21 -24 -47 -21 -6 1 -18 -8 -27 -21 -9 -12 -18 -19 -22 -16 -11 12 44 58
60 52 9 -4 18 0 22 10 3 9 10 16 15 16 6 0 5 -9 -1 -20z m5960 -10 c0 -6 -33
-10 -80 -10 -47 0 -80 4 -80 10 0 6 33 10 80 10 47 0 80 -4 80 -10z m-5920
-64 c0 -9 -20 -15 -61 -20 -84 -8 -99 -8 -99 4 0 6 18 10 40 10 22 0 40 5 40
10 0 6 18 10 40 10 27 0 40 -4 40 -14z m6080 -26 c0 -6 -33 -9 -82 -8 -71 1
-77 2 -38 8 70 11 120 11 120 0z m75 -98 c-7 -7 -55 39 -55 52 0 5 13 -3 30
-19 16 -16 28 -31 25 -33z m-6395 28 c0 -5 -18 -10 -40 -10 -22 0 -40 5 -40
10 0 6 18 10 40 10 22 0 40 -4 40 -10z m6320 0 c0 -5 -18 -10 -40 -10 -22 0
-40 5 -40 10 0 6 18 10 40 10 22 0 40 -4 40 -10z m-6320 -65 c0 -11 -12 -15
-49 -15 -41 0 -53 -4 -69 -25 -11 -14 -26 -25 -33 -25 -7 0 5 18 26 40 34 34
45 40 82 40 32 0 43 -4 43 -15z m6604 -101 c35 -35 50 -80 24 -71 -7 2 -13 11
-13 20 0 9 -13 29 -28 45 -24 25 -34 42 -23 42 2 0 20 -16 40 -36z m-44 6 c0
-5 -18 -10 -40 -10 -22 0 -40 5 -40 10 0 6 18 10 40 10 22 0 40 -4 40 -10z
m-6920 -85 c-13 -14 -28 -25 -34 -25 -5 0 3 13 19 30 16 16 31 28 33 25 3 -3
-5 -16 -18 -30z m68 23 c-6 -18 -28 -21 -28 -4 0 9 7 16 16 16 9 0 14 -5 12
-12z m12 -23 c-18 -19 -35 -33 -37 -31 -6 5 50 63 61 65 6 0 -5 -15 -24 -34z
m6890 4 c17 -17 29 -33 27 -35 -2 -2 -19 12 -37 31 -19 19 -31 35 -28 35 4 0
21 -14 38 -31z m105 -27 c-7 -7 -55 39 -55 52 0 5 13 -3 30 -19 16 -16 28 -31
25 -33z m-7151 -37 c-6 -15 -44 -41 -44 -30 0 8 34 43 42 44 4 1 5 -6 2 -14z
m116 0 c0 -11 -11 -15 -40 -15 -29 0 -40 4 -40 15 0 11 11 15 40 15 29 0 40
-4 40 -15z m7040 0 c0 -11 -11 -15 -40 -15 -29 0 -40 4 -40 15 0 11 11 15 40
15 29 0 40 -4 40 -15z m75 -43 c-7 -7 -55 39 -55 52 0 5 13 -3 30 -19 16 -16
28 -31 25 -33z m-7315 -42 c-10 -19 -23 -25 -44 -21 -15 3 -37 -22 -32 -36 6
-15 -32 -59 -42 -49 -3 4 3 12 13 20 10 7 15 18 11 24 -10 16 39 63 58 56 9
-4 18 0 22 10 3 9 10 16 15 16 6 0 5 -9 -1 -20z m100 5 c0 -8 -9 -15 -20 -15
-11 0 -20 -7 -20 -15 0 -8 -4 -15 -10 -15 -5 0 -10 14 -10 30 0 27 3 30 30 30
20 0 30 -5 30 -15z m7220 0 c0 -11 -11 -15 -40 -15 -29 0 -40 4 -40 15 0 11
11 15 40 15 29 0 40 -4 40 -15z m60 -5 c11 -11 20 -22 20 -25 0 -11 -38 15
-44 30 -7 20 0 19 24 -5z m-7400 -100 c0 -22 -4 -40 -10 -40 -5 0 -10 18 -10
40 0 22 5 40 10 40 6 0 10 -18 10 -40z m7480 20 c11 -11 20 -22 20 -25 0 -11
-38 15 -44 30 -7 20 0 19 24 -5z m-7610 -108 c-22 -23 -30 -40 -30 -67 0 -46
-19 -65 -65 -65 -53 0 -95 -44 -95 -99 0 -23 -4 -41 -10 -41 -5 0 -10 19 -10
42 0 41 5 47 117 160 65 65 119 114 121 109 2 -5 -11 -22 -28 -39z m7702 -30
c-12 -4 -72 56 -72 71 0 6 18 -7 40 -28 23 -22 37 -41 32 -43z m88 -92 c0 -5
-18 -10 -40 -10 -22 0 -40 5 -40 10 0 6 18 10 40 10 22 0 40 -4 40 -10z m60
-10 c11 -11 20 -22 20 -25 0 -11 -38 15 -44 30 -7 20 0 19 24 -5z m20 -100 c0
-29 -4 -40 -15 -40 -11 0 -15 11 -15 40 0 29 4 40 15 40 11 0 15 -11 15 -40z
m60 20 c11 -11 20 -22 20 -25 0 -11 -38 15 -44 30 -7 20 0 19 24 -5z m-8256
-75 c-6 -15 -44 -41 -44 -30 0 8 34 43 42 44 4 1 5 -6 2 -14z m56 -25 c0 -22
-4 -40 -10 -40 -5 0 -10 18 -10 40 0 22 5 40 10 40 6 0 10 -18 10 -40z m8220
0 c0 -29 -4 -40 -15 -40 -11 0 -15 11 -15 40 0 29 4 40 15 40 11 0 15 -11 15
-40z m75 -18 c-7 -7 -55 39 -55 52 0 5 13 -3 30 -19 16 -16 28 -31 25 -33z
m-8435 -57 c-13 -14 -28 -25 -34 -25 -5 0 3 13 19 30 16 16 31 28 33 25 3 -3
-5 -16 -18 -30z m100 25 c0 -5 -7 -10 -15 -10 -8 0 -15 -9 -15 -20 0 -11 -7
-20 -15 -20 -10 0 -15 10 -15 30 0 27 3 30 30 30 17 0 30 -4 30 -10z m8340
-30 c0 -29 -4 -40 -15 -40 -11 0 -15 11 -15 40 0 29 4 40 15 40 11 0 15 -11
15 -40z m-8450 -80 c0 -29 -4 -40 -15 -40 -11 0 -15 11 -15 40 0 29 4 40 15
40 11 0 15 -11 15 -40z m8510 1 c0 -22 5 -41 11 -43 6 -2 10 -12 8 -23 -4 -18
-5 -18 -21 -1 -20 19 -26 106 -8 106 6 0 10 -18 10 -39z m-8580 -76 c-18 -19
-35 -33 -37 -31 -6 5 50 63 61 65 6 0 -5 -15 -24 -34z m8650 4 c17 -17 29 -33
27 -35 -2 -2 -19 12 -37 31 -19 19 -31 35 -28 35 4 0 21 -14 38 -31z m-8723
-111 c-2 -13 -4 -3 -4 22 0 25 2 35 4 23 2 -13 2 -33 0 -45z m8741 50 c16 -16
15 -29 -2 -22 -16 6 -30 34 -18 34 5 0 13 -5 20 -12z m-8828 -103 c-13 -14
-28 -25 -34 -25 -5 0 3 13 19 30 16 16 31 28 33 25 3 -3 -5 -16 -18 -30z
m8980 -45 c0 -47 -4 -80 -10 -80 -6 0 -10 33 -10 80 0 47 4 80 10 80 6 0 10
-33 10 -80z m-8990 -40 c0 -29 -4 -40 -15 -40 -11 0 -15 11 -15 40 0 29 4 40
15 40 11 0 15 -11 15 -40z m9150 -200 c0 -47 -4 -80 -10 -80 -6 0 -10 33 -10
80 0 47 4 80 10 80 6 0 10 -33 10 -80z m80 -100 c11 -11 20 -22 20 -25 0 -11
-38 15 -44 30 -7 20 0 19 24 -5z m20 -100 c0 -29 -4 -40 -15 -40 -11 0 -15 11
-15 40 0 29 4 40 15 40 11 0 15 -11 15 -40z m-4576 -204 c258 -87 438 -297
483 -563 53 -316 -110 -622 -404 -759 -336 -157 -750 -17 -920 312 -65 126
-78 178 -77 334 0 119 3 145 27 215 39 116 91 199 183 291 66 66 99 90 175
127 125 60 205 78 344 73 86 -3 127 -9 189 -30z m106 -1537 c166 -20 335 -92
420 -179 64 -65 123 -177 140 -265 8 -42 10 -217 7 -590 -3 -494 -5 -536 -24
-615 -42 -171 -114 -320 -196 -403 -68 -69 -64 -53 -177 -737 -45 -272 -91
-517 -101 -545 -25 -66 -69 -118 -122 -144 -40 -19 -61 -21 -253 -21 -198 0
-212 1 -254 23 -26 13 -60 42 -82 71 -49 66 -59 107 -108 426 -12 76 -75 455
-106 630 -35 204 -50 248 -94 290 -102 96 -178 265 -215 474 -22 130 -22 1084
0 1171 38 143 137 267 265 328 88 41 191 74 275 86 87 12 526 13 625 0z
m-5780 -458 c0 -53 -4 -81 -12 -83 -16 -6 -15 -871 1 -876 14 -5 14 -82 1 -82
-5 0 -10 18 -10 39 0 22 -5 41 -11 43 -16 5 -17 870 -1 876 8 2 12 30 12 83 0
46 4 79 10 79 6 0 10 -33 10 -79z m10367 -3023 c-2 -13 -4 -3 -4 22 0 25 2 35
4 23 2 -13 2 -33 0 -45z m-9537 -298 c0 -22 5 -40 10 -40 6 0 10 -33 10 -80 0
-47 -4 -80 -10 -80 -6 0 -10 33 -10 80 0 47 -4 80 -10 80 -5 0 -10 18 -10 40
0 22 5 40 10 40 6 0 10 -18 10 -40z m9260 -150 c0 -38 -4 -50 -15 -50 -16 0
-21 52 -9 84 12 32 24 15 24 -34z m-9153 -112 c-2 -13 -4 -3 -4 22 0 25 2 35
4 23 2 -13 2 -33 0 -45z m73 -58 c0 -22 -4 -40 -10 -40 -5 0 -10 18 -10 40 0
22 5 40 10 40 6 0 10 -18 10 -40z m8970 -9 c-17 -17 -34 -31 -38 -31 -3 0 9
16 28 35 18 19 35 33 37 31 2 -2 -10 -18 -27 -35z m-50 -71 c0 -29 -4 -40 -15
-40 -11 0 -15 11 -15 40 0 29 4 40 15 40 11 0 15 -11 15 -40z m-8920 -5 c13
-14 21 -27 18 -30 -2 -3 -17 9 -33 25 -16 17 -24 30 -19 30 6 0 21 -11 34 -25z
m87 -97 c-2 -13 -4 -3 -4 22 0 25 2 35 4 23 2 -13 2 -33 0 -45z m8710 -80 c-2
-13 -4 -3 -4 22 0 25 2 35 4 23 2 -13 2 -33 0 -45z m-8611 -15 c-4 -5 -66 56
-66 65 0 3 16 -9 35 -28 19 -18 33 -35 31 -37z m8554 -43 c0 -22 -4 -40 -10
-40 -5 0 -10 18 -10 40 0 22 5 40 10 40 6 0 10 -18 10 -40z m-8474 -37 c-4 -5
-66 56 -66 65 0 3 16 -9 35 -28 19 -18 33 -35 31 -37z m8384 -52 c-17 -17 -34
-31 -38 -31 -3 0 9 16 28 35 18 19 35 33 37 31 2 -2 -10 -18 -27 -35z m-8410
4 c13 -14 21 -27 18 -30 -2 -3 -17 9 -33 25 -16 17 -24 30 -19 30 6 0 21 -11
34 -25z m8360 -75 c0 -29 -4 -40 -15 -40 -11 0 -15 11 -15 40 0 29 4 40 15 40
11 0 15 -11 15 -40z m-8280 -5 c13 -14 21 -27 18 -30 -2 -3 -17 9 -33 25 -16
17 -24 30 -19 30 6 0 21 -11 34 -25z m8335 -5 c-16 -16 -31 -28 -33 -25 -7 7
39 55 52 55 5 0 -3 -13 -19 -30z m-8260 0 c25 -27 12 -37 -14 -11 -12 12 -21
23 -21 26 0 11 18 4 35 -15z m-20 -20 c3 -5 1 -10 -4 -10 -6 0 -11 5 -11 10 0
6 2 10 4 10 3 0 8 -4 11 -10z m8145 -50 c0 -29 -4 -40 -15 -40 -11 0 -15 11
-15 40 0 29 4 40 15 40 11 0 15 -11 15 -40z m55 -10 c-16 -16 -31 -28 -33 -25
-7 7 39 55 52 55 5 0 -3 -13 -19 -30z m-8174 -11 c5 -11 7 -19 4 -19 -6 0 -45
38 -45 45 0 11 31 -9 41 -26z m8094 -69 c-16 -16 -31 -28 -33 -25 -7 7 39 55
52 55 5 0 -3 -13 -19 -30z m-8014 -11 c5 -11 7 -19 4 -19 -6 0 -45 38 -45 45
0 11 31 -9 41 -26z m69 16 c7 -8 21 -15 31 -15 11 0 19 -4 19 -10 0 -5 -18
-10 -40 -10 -22 0 -40 5 -40 10 0 6 6 10 13 11 10 0 10 2 0 6 -15 5 -18 23 -4
23 5 0 14 -7 21 -15z m7810 -75 c0 -29 -4 -40 -15 -40 -11 0 -15 11 -15 40 0
29 4 40 15 40 11 0 15 -11 15 -40z m-7799 -21 c5 -11 7 -19 4 -19 -6 0 -45 38
-45 45 0 11 31 -9 41 -26z m7859 1 c-12 -12 -24 -19 -27 -17 -2 3 5 15 17 27
12 12 24 19 27 17 2 -3 -5 -15 -17 -27z m-7786 -6 c7 -17 -6 -18 -22 -2 -7 7
-12 15 -12 20 0 12 28 -2 34 -18z m7 -75 c5 -11 7 -19 4 -19 -6 0 -45 38 -45
45 0 11 31 -9 41 -26z m7699 1 c-12 -12 -24 -19 -27 -17 -2 3 5 15 17 27 12
12 24 19 27 17 2 -3 -5 -15 -17 -27z m-7580 -5 c0 -11 -11 -15 -40 -15 -29 0
-40 4 -40 15 0 11 11 15 40 15 29 0 40 -4 40 -15z m7440 -55 c0 -29 -4 -40
-15 -40 -11 0 -15 11 -15 40 0 29 4 40 15 40 11 0 15 -11 15 -40z m55 -10
c-16 -16 -31 -28 -33 -25 -7 7 39 55 52 55 5 0 -3 -13 -19 -30z m-7534 -11 c5
-11 7 -19 4 -19 -6 0 -45 38 -45 45 0 11 31 -9 41 -26z m80 -80 c5 -11 7 -19
4 -19 -6 0 -45 38 -45 45 0 11 31 -9 41 -26z m7319 26 c0 -3 -9 -14 -21 -26
-26 -26 -39 -16 -14 11 17 19 35 26 35 15z m0 -35 c0 -5 -5 -10 -11 -10 -5 0
-7 5 -4 10 3 6 8 10 11 10 2 0 4 -4 4 -10z m-7240 -55 c13 -14 21 -27 18 -30
-2 -3 -17 9 -33 25 -16 17 -24 30 -19 30 6 0 21 -11 34 -25z m75 -5 c25 -27
12 -37 -14 -11 -12 12 -21 23 -21 26 0 11 18 4 35 -15z m-20 -20 c3 -5 1 -10
-4 -10 -6 0 -11 5 -11 10 0 6 2 10 4 10 3 0 8 -4 11 -10z m131 -87 c-4 -5 -66
56 -66 65 0 3 16 -9 35 -28 19 -18 33 -35 31 -37z m-106 32 c13 -14 21 -27 18
-30 -2 -3 -17 9 -33 25 -16 17 -24 30 -19 30 6 0 21 -11 34 -25z m7000 -5 c0
-5 -18 -10 -40 -10 -22 0 -40 5 -40 10 0 6 18 10 40 10 22 0 40 -4 40 -10z
m-6932 -18 c2 -7 -3 -12 -12 -12 -9 0 -16 7 -16 16 0 17 22 14 28 -4z m100
-42 c24 -24 39 -30 71 -30 23 0 41 -4 41 -10 0 -5 -19 -10 -43 -10 -37 0 -48
6 -82 40 -21 22 -34 40 -28 40 6 0 25 -13 41 -30z m6647 -100 c-16 -16 -31
-28 -33 -25 -7 7 39 55 52 55 5 0 -3 -13 -19 -30z m-55 15 c0 -3 -9 -14 -21
-26 -26 -26 -39 -16 -14 11 17 19 35 26 35 15z m-6400 -30 c0 -11 -11 -15 -40
-15 -29 0 -40 4 -40 15 0 11 11 15 40 15 29 0 40 -4 40 -15z m6400 -5 c0 -5
-5 -10 -11 -10 -5 0 -7 5 -4 10 3 6 8 10 11 10 2 0 4 -4 4 -10z m-6440 -55
c13 -14 21 -27 18 -30 -2 -3 -17 9 -33 25 -16 17 -24 30 -19 30 6 0 21 -11 34
-25z m120 -5 c0 -5 -18 -10 -40 -10 -22 0 -40 5 -40 10 0 6 18 10 40 10 22 0
40 -4 40 -10z m63 -67 c-13 -2 -33 -2 -45 0 -13 2 -3 4 22 4 25 0 35 -2 23 -4z
m6080 0 c-13 -2 -33 -2 -45 0 -13 2 -3 4 22 4 25 0 35 -2 23 -4z m-5903 -93
c0 -6 -33 -10 -80 -10 -47 0 -80 4 -80 10 0 6 33 10 80 10 47 0 80 -4 80 -10z
m5600 -80 c0 -5 -18 -10 -40 -10 -22 0 -40 5 -40 10 0 6 18 10 40 10 22 0 40
-4 40 -10z"/>
<path d="M3167 10882 c-23 -25 -21 -32 8 -32 20 0 25 5 25 25 0 30 -11 32 -33
7z"/>
<path d="M5280 12260 c0 -5 18 -10 40 -10 22 0 40 5 40 10 0 6 -18 10 -40 10
-22 0 -40 -4 -40 -10z"/>
<path d="M4182 11783 c-13 -14 -21 -28 -18 -31 7 -6 56 37 56 50 0 14 -14 7
-38 -19z"/>
<path d="M3942 11623 c-13 -14 -21 -28 -18 -31 7 -6 56 37 56 50 0 14 -14 7
-38 -19z"/>
<path d="M3702 11463 c-13 -14 -21 -28 -18 -31 7 -6 56 37 56 50 0 14 -14 7
-38 -19z"/>
<path d="M2720 10490 c0 -22 5 -40 10 -40 6 0 10 18 10 40 0 22 -4 40 -10 40
-5 0 -10 -18 -10 -40z"/>
<path d="M11380 10522 c0 -13 49 -56 56 -50 3 3 -7 18 -21 32 -27 27 -35 31
-35 18z"/>
<path d="M2662 10423 c-13 -14 -21 -28 -18 -31 7 -6 56 37 56 50 0 14 -14 7
-38 -19z"/>
<path d="M11440 10445 c0 -11 71 -77 77 -72 3 3 -11 22 -31 41 -34 34 -46 42
-46 31z"/>
<path d="M11620 10202 c0 -13 49 -56 56 -50 3 3 -7 18 -21 32 -27 27 -35 31
-35 18z"/>
<path d="M11780 9962 c0 -13 49 -56 56 -50 3 3 -7 18 -21 32 -27 27 -35 31
-35 18z"/>
<path d="M1860 8810 c0 -22 5 -40 10 -40 6 0 10 18 10 40 0 22 -4 40 -10 40
-5 0 -10 -18 -10 -40z"/>
<path d="M1770 8730 c0 -22 5 -40 10 -40 6 0 10 18 10 40 0 22 -4 40 -10 40
-5 0 -10 -18 -10 -40z"/>
<path d="M12533 7933 c4 -66 11 -119 17 -121 13 -5 13 -162 0 -162 -6 0 -10
-60 -10 -160 0 -100 4 -160 10 -160 6 0 10 -100 10 -280 0 -180 -4 -280 -10
-280 -6 0 -10 -60 -10 -160 0 -100 4 -160 10 -160 13 0 13 -157 0 -162 -14 -4
-27 -238 -13 -238 6 0 13 43 17 100 3 55 9 145 12 200 4 55 11 100 15 100 5 0
9 216 9 480 0 313 -3 480 -10 480 -5 0 -10 18 -10 40 0 22 5 40 10 40 6 0 10
-18 10 -40 0 -22 5 -40 10 -40 6 0 10 -127 10 -360 0 -233 4 -360 10 -360 6 0
10 127 10 360 0 233 -4 360 -10 360 -5 0 -10 18 -10 40 0 22 -4 40 -10 40 -6
0 -10 33 -10 80 0 44 -4 80 -9 80 -4 0 -11 45 -15 100 -3 55 -9 145 -12 200
-4 57 -11 100 -17 100 -7 0 -8 -40 -4 -117z"/>
<path d="M1580 6210 c0 -64 3 -80 15 -80 12 0 15 -16 15 -80 0 -54 4 -80 12
-80 14 0 3 233 -12 238 -5 2 -10 21 -10 43 0 21 -4 39 -10 39 -6 0 -10 -33
-10 -80z"/>
<path d="M12125 4853 c7 -79 10 -91 21 -80 10 9 -7 157 -18 157 -7 0 -8 -28
-3 -77z"/>
<path d="M11952 4475 c-35 -38 -46 -105 -17 -105 11 0 15 11 15 40 0 30 7 47
25 66 27 26 30 34 17 34 -5 0 -23 -16 -40 -35z"/>
<path d="M2480 3945 c0 -9 52 -56 58 -51 6 7 -37 56 -50 56 -4 0 -8 -2 -8 -5z"/>
<path d="M2640 3705 c0 -9 52 -56 58 -51 6 7 -37 56 -50 56 -4 0 -8 -2 -8 -5z"/>
<path d="M11400 3605 c-32 -34 -19 -43 14 -10 14 14 26 28 26 30 0 12 -19 3
-40 -20z"/>
<path d="M10512 2715 c-18 -19 -32 -40 -32 -47 0 -7 18 7 40 31 22 24 40 45
40 47 0 13 -21 -1 -48 -31z"/>
<path d="M3600 2710 c0 -5 18 -10 40 -10 22 0 40 5 40 10 0 6 -18 10 -40 10
-22 0 -40 -4 -40 -10z"/>
<path d="M3920 2505 c0 -9 52 -56 58 -51 6 7 -37 56 -50 56 -4 0 -8 -2 -8 -5z"/>
<path d="M10200 2485 c-32 -34 -19 -43 14 -10 14 14 26 28 26 30 0 12 -19 3
-40 -20z"/>
<path d="M6080 1591 c0 -10 77 -18 263 -27 75 -4 137 -11 137 -15 0 -5 36 -9
80 -9 47 0 80 -4 80 -10 0 -5 18 -10 40 -10 22 0 40 -4 40 -10 0 -6 113 -10
320 -10 207 0 320 4 320 10 0 6 33 10 80 10 47 0 80 4 80 10 0 6 33 10 80 10
44 0 80 4 80 9 0 4 62 11 138 15 185 9 262 17 262 27 0 12 -234 -1 -238 -13
-5 -12 -162 -10 -162 2 0 6 -60 10 -160 10 -100 0 -160 -4 -160 -10 0 -6 -100
-10 -280 -10 -180 0 -280 4 -280 10 0 6 -60 10 -160 10 -100 0 -160 -4 -160
-10 0 -12 -157 -14 -162 -2 -4 12 -238 25 -238 13z m640 -41 c0 -6 113 -10
320 -10 207 0 320 4 320 10 0 6 33 10 80 10 47 0 80 -4 80 -10 0 -6 -33 -10
-80 -10 -47 0 -80 -4 -80 -10 0 -6 -113 -10 -320 -10 -207 0 -320 4 -320 10 0
6 -18 10 -40 10 -22 0 -40 5 -40 10 0 6 18 10 40 10 22 0 40 -4 40 -10z"/>
</g>
</svg>
